<svg xmlns="http://www.w3.org/2000/svg" xmlns:xlink="http://www.w3.org/1999/xlink" viewBox="0 0 330.8 141.86"><defs><style>.a{fill:#c4d600;}.b{fill:url(#a);}.c{fill:#ffb700;}.d{fill:url(#b);}.e{fill:#ef7622;}.f{fill:url(#c);}.g{font-size:53.14px;fill:#ee7203;font-family:DINPro-Medium, DINPro;letter-spacing:-0.1em;}.h{letter-spacing:-0.09em;}.i{letter-spacing:-0.08em;}</style><linearGradient id="a" x1="159.36" y1="-33.84" x2="117.2" y2="75.42" gradientTransform="translate(-34.8 41.89) rotate(-2.63)" gradientUnits="userSpaceOnUse"><stop offset="0" stop-color="#00953a" stop-opacity="0.1"/><stop offset="0.18" stop-color="#00953a" stop-opacity="0.22"/><stop offset="0.55" stop-color="#00953a" stop-opacity="0.55"/><stop offset="1" stop-color="#00953a"/></linearGradient><linearGradient id="b" x1="36.94" y1="11.43" x2="85.6" y2="124.07" gradientTransform="matrix(1, -0.02, 0.02, 1, -21.7, 22.88)" gradientUnits="userSpaceOnUse"><stop offset="0" stop-color="#ef7622" stop-opacity="0.1"/><stop offset="0.1" stop-color="#ef7622" stop-opacity="0.15"/><stop offset="0.28" stop-color="#ef7622" stop-opacity="0.28"/><stop offset="0.52" stop-color="#ef7622" stop-opacity="0.5"/><stop offset="0.81" stop-color="#ef7622" stop-opacity="0.79"/><stop offset="1" stop-color="#ef7622"/></linearGradient><linearGradient id="c" x1="182.01" y1="157.42" x2="297.22" y2="42.22" gradientUnits="userSpaceOnUse"><stop offset="0.02" stop-color="#c8d400"/><stop offset="0.6" stop-color="#00853d"/></linearGradient></defs><title>Asset 4</title><path class="a" d="M154.16,16.62s-53.67,6-65.27,34c-11.52,27.83-5.64,53.75-1.57,65.84,1.53,4.54,2.77,12,8,12.8,3.42.5,10.15-3.54,16.36-11.09,9-11,19.93-28,29.34-43.54a291,291,0,0,0,21.71-43.29C166.81,24.72,164.06,14.82,154.16,16.62Z"/><path class="b" d="M134,7.88S82,22.81,75.22,52.37c-6.77,29.38,3.31,53.94,9.33,65.18,2.26,4.22,6.2,11.87,11.51,11.73,8.49-.21,23.25-33.43,34.57-62A291.83,291.83,0,0,0,144.88,21C147.77,13.75,143.43,4.44,134,7.88Z"/><path class="c" d="M40.19,3.45c4.36-3.29,13.23-7,15.64,3.38,0,0,15,84.27,28.26,117.65,3.47,8.72,11.06,10.43,13.79,9.22-15.18,12.58-31.33.45-31.33.45S21.83,105.93,13.86,75.52C2.94,33.91,40.19,3.45,40.19,3.45Z"/><path class="d" d="M19.41,14c3.76-4,11.88-9.16,16,.71,0,0,28.67,80.59,47.31,111.28,4.87,8,13.35,8.75,15.19,7.72C85,148.67,67,138.47,67,138.47s-48.76-20.35-61.64-49C-12.3,50.27,19.41,14,19.41,14Z"/><path class="e" d="M171.3,106.29"/><path class="f" d="M150.87,126.28l8.9-50.49h12.41l-8.9,50.49Zm27.37,0L168,99.76l17.84-24h14.25l-19,23.47,11.76,27Z"/><path class="f" d="M222.56,126.28l7-39.43h-8.79L218.39,100c-3.73,21.13-9.87,26.24-20.79,26.24h-4.75l2-11.06h1.49c4.4,0,7.86-2.34,10.12-15.18l4.28-24.25h33.18L235,126.28Z"/><path class="f" d="M266.17,117.42c-2.7,4.47-7.17,8.86-13.62,8.86h-6.88l2-11.06H252c3.69,0,5.52-2.77,6.34-4.61l.12-.28-9.87-34.54h13l5.14,21.13,11.74-21.13h12.69Z"/><path class="f" d="M308.28,126.28H287.44l8.9-50.49H330.8l-2,11.06H306.8l-1.23,6.95H314c10.57,0,15.68,6.81,14,16.24S318.92,126.28,308.28,126.28Zm3.2-21.34h-7.87l-1.8,10.21h7.87a6,6,0,0,0,5.93-5.11C316.12,107.14,314.6,104.94,311.48,104.94Z"/><text class="g" transform="matrix(1.14, 0, -0.2, 0.98, 167.96, 69.71)">В<tspan class="h" x="30.05" y="0">О</tspan><tspan x="59.76" y="0">Л</tspan><tspan class="i" x="90.77" y="0">Я</tspan></text></svg>