<svg xmlns="http://www.w3.org/2000/svg" xmlns:xlink="http://www.w3.org/1999/xlink" viewBox="0 0 433.53 141.86"><defs><linearGradient id="a" x1="159.36" y1="-33.84" x2="117.2" y2="75.42" gradientTransform="translate(-34.8 41.89) rotate(-2.63)" gradientUnits="userSpaceOnUse"><stop offset="0" stop-color="#00953a" stop-opacity="0.1"/><stop offset="0.18" stop-color="#00953a" stop-opacity="0.22"/><stop offset="0.55" stop-color="#00953a" stop-opacity="0.55"/><stop offset="1" stop-color="#00953a"/></linearGradient><linearGradient id="b" x1="36.94" y1="11.43" x2="85.6" y2="124.07" gradientTransform="matrix(1, -0.02, 0.02, 1, -21.7, 22.88)" gradientUnits="userSpaceOnUse"><stop offset="0" stop-color="#f6773f" stop-opacity="0.1"/><stop offset="0.1" stop-color="#f6773f" stop-opacity="0.15"/><stop offset="0.27" stop-color="#f6773f" stop-opacity="0.28"/><stop offset="0.51" stop-color="#f6773f" stop-opacity="0.49"/><stop offset="0.79" stop-color="#f6773f" stop-opacity="0.77"/><stop offset="1" stop-color="#f6773f"/></linearGradient></defs><title>Ресурс 4</title><path d="M154.16,16.62s-53.67,6-65.27,34c-11.52,27.83-5.64,53.75-1.57,65.84,1.53,4.54,2.77,12,8,12.8,3.42.5,10.15-3.54,16.36-11.09,9-11,19.93-28,29.34-43.54a291,291,0,0,0,21.71-43.29C166.81,24.72,164.06,14.82,154.16,16.62Z" style="fill:#b7d545"/><path d="M134,7.88S82,22.81,75.22,52.37c-6.77,29.38,3.31,53.94,9.33,65.18,2.26,4.22,6.2,11.87,11.51,11.73,8.49-.21,23.25-33.43,34.57-62A291.83,291.83,0,0,0,144.88,21C147.77,13.75,143.43,4.44,134,7.88Z" style="fill:url(#a)"/><path d="M40.19,3.45c4.36-3.29,13.23-7,15.64,3.38,0,0,15,84.27,28.26,117.65,3.47,8.72,11.06,10.43,13.79,9.22-15.18,12.58-31.33.45-31.33.45S21.83,105.93,13.86,75.52C2.94,33.91,40.19,3.45,40.19,3.45Z" style="fill:#ffb338"/><path d="M19.41,14c3.76-4,11.88-9.16,16,.71,0,0,28.67,80.59,47.31,111.28,4.87,8,13.35,8.75,15.19,7.72C85,148.67,67,138.47,67,138.47s-48.76-20.35-61.64-49C-12.3,50.27,19.41,14,19.41,14Z" style="fill:url(#b)"/><path d="M204.15,106.29H171.3l12.9-70.72H215.8c14.83,0,23.15,7.55,21,19.07-1.3,7.15-6,12.32-13.76,15.4,7.39,3.28,10.69,8.34,9.22,16.39C230.08,98.65,219.33,106.29,204.15,106.29Zm4.44-31.19H189.31l-3.93,21.55h19.28c8.21,0,14.11-4.17,15.32-10.82S216.8,75.1,208.59,75.1ZM213,45.21H194.76l-3.69,20.26h18.25c8.21,0,13.92-3.77,15.08-10.13S221.23,45.21,213,45.21Z" style="fill:#f6773f"/><path d="M298.79,71.93c-2.12,11.62-3.84,20.46-12.87,27.41a36.93,36.93,0,0,1-22.83,7.55c-8.44,0-15.27-2.58-20-7.55-6.51-6.85-4.87-16.48-2.94-27l.85-4.67c2.12-11.62,4.52-19.17,12.45-25.13A37.67,37.67,0,0,1,276.21,35c8.44,0,15.37,2.68,20.07,7.55,5.26,5.56,5.43,13.41,3.6,23.44ZM285.75,49c-2.67-2.88-6.62-4.37-11.29-4.37A21.15,21.15,0,0,0,261.56,49c-5.32,4.17-6.71,11.12-8.36,20.16l-1.1,6.06c-1.32,7.25-2.19,13.91,1.45,17.68,2.78,2.88,6.62,4.37,11.3,4.37a20.45,20.45,0,0,0,12.89-4.37c5.58-4.37,6.73-10.63,8.92-22.65C288.62,59.51,289.55,53.15,285.75,49Z" style="fill:#f6773f"/><path d="M343.66,106.29l11.14-61.09H331.42l-4.08,22.35c-5.42,29.7-15.28,38.74-31.59,38.74h-5.13l1.76-9.64h2.17c9,0,16.42-5,21.09-30.59l5.56-30.49h47.69L356,106.29Z" style="fill:#f6773f"/><path d="M376.37,106.29H361.76l23.12-29.8c-9.06-2.88-13.82-9.94-12.08-19.47,2.39-13.11,14.41-21.46,29.81-21.46h30.92l-12.9,70.72H408.19l5.07-27.81H397.18Zm43-61.18H401.67c-8.9,0-15.19,4.47-16.53,11.82s3.3,11.92,12.2,11.92H415Z" style="fill:#f6773f"/></svg>