<svg xmlns="http://www.w3.org/2000/svg" xmlns:xlink="http://www.w3.org/1999/xlink" viewBox="0 0 330.79 141.86">
    <defs>
        <style>.a{fill:#c4d600;}.b{fill:url(#a);}.c{fill:#ffb700;}.d{fill:url(#b);}.e{fill:#ef7622;}.f{fill:url(#c);}.g{fill:#ee7203;}</style>
        <linearGradient id="a" x1="159.36" y1="-33.84" x2="117.2" y2="75.42" gradientTransform="translate(-34.8 41.89) rotate(-2.63)" gradientUnits="userSpaceOnUse">
            <stop offset="0" stop-color="#00953a" stop-opacity="0.1"/>
            <stop offset="0.18" stop-color="#00953a" stop-opacity="0.22"/>
            <stop offset="0.55" stop-color="#00953a" stop-opacity="0.55"/>
            <stop offset="1" stop-color="#00953a"/>
        </linearGradient>
        <linearGradient id="b" x1="36.94" y1="11.43" x2="85.6" y2="124.07" gradientTransform="matrix(1, -0.02, 0.02, 1, -21.7, 22.88)" gradientUnits="userSpaceOnUse">
            <stop offset="0" stop-color="#ef7622" stop-opacity="0.1"/>
            <stop offset="0.1" stop-color="#ef7622" stop-opacity="0.15"/>
            <stop offset="0.28" stop-color="#ef7622" stop-opacity="0.28"/>
            <stop offset="0.52" stop-color="#ef7622" stop-opacity="0.5"/>
            <stop offset="0.81" stop-color="#ef7622" stop-opacity="0.79"/>
            <stop offset="1" stop-color="#ef7622"/>
        </linearGradient>
        <linearGradient id="c" x1="182" y1="157.44" x2="297.21" y2="42.23" gradientUnits="userSpaceOnUse">
            <stop offset="0.02" stop-color="#c8d400"/>
            <stop offset="0.6" stop-color="#00853d"/>
        </linearGradient>
    </defs>
    <title>Asset 1</title>
    <path class="a" d="M154.16,16.62s-53.67,6-65.27,34c-11.52,27.83-5.64,53.75-1.57,65.84,1.53,4.54,2.77,12,8,12.8,3.42.5,10.15-3.54,16.36-11.09,9-11,19.93-28,29.34-43.54a291,291,0,0,0,21.71-43.29C166.81,24.72,164.06,14.82,154.16,16.62Z"/>
    <path class="b" d="M134,7.88S82,22.81,75.22,52.37c-6.77,29.38,3.31,53.94,9.33,65.18,2.26,4.22,6.2,11.87,11.51,11.73,8.49-.21,23.25-33.43,34.57-62A291.83,291.83,0,0,0,144.88,21C147.77,13.75,143.43,4.44,134,7.88Z"/>
    <path class="c" d="M40.19,3.45c4.36-3.29,13.23-7,15.64,3.38,0,0,15,84.27,28.26,117.65,3.47,8.72,11.06,10.43,13.79,9.22-15.18,12.58-31.33.45-31.33.45S21.83,105.93,13.86,75.52C2.94,33.91,40.19,3.45,40.19,3.45Z"/>
    <path class="d" d="M19.41,14c3.76-4,11.88-9.16,16,.71,0,0,28.67,80.59,47.31,111.28,4.87,8,13.35,8.75,15.19,7.72C85,148.67,67,138.47,67,138.47s-48.76-20.35-61.64-49C-12.3,50.27,19.41,14,19.41,14Z"/>
    <path class="e" d="M171.3,106.29"/>
    <path class="f" d="M150.86,126.3l8.9-50.49h12.41l-8.9,50.49Zm27.37,0L168,99.78l17.84-24h14.25l-19,23.47,11.76,27Z"/>
    <path class="f" d="M222.54,126.3l7-39.43H220.7l-2.33,13.19c-3.73,21.13-9.87,26.24-20.79,26.24h-4.75l2-11.06h1.49c4.4,0,7.86-2.34,10.12-15.17l4.28-24.25h33.18L235,126.3Z"/>
    <path class="f" d="M266.15,117.44c-2.7,4.47-7.17,8.86-13.62,8.86h-6.88l2-11.06H252c3.69,0,5.52-2.76,6.34-4.61l.12-.28L248.6,75.81h13l5.14,21.13,11.74-21.13h12.69Z"/>
    <path class="f" d="M308.27,126.3H287.42l8.9-50.49h34.46l-2,11.06H306.78l-1.22,6.95H314c10.57,0,15.68,6.81,14,16.24S318.9,126.3,308.27,126.3Zm3.2-21.34h-7.87l-1.8,10.21h7.87a6,6,0,0,0,5.93-5.11C316.11,107.16,314.58,105,311.46,105Z"/>
    <path class="g" d="M191,69.68H173.56l7.6-37.06h16.78c7.88,0,12.21,4,11,10-.77,3.75-3.32,6.45-7.47,8.07,3.89,1.72,5.58,4.37,4.72,8.59C204.86,65.67,199.07,69.68,191,69.68Zm2.69-16.34H183.46l-2.32,11.29h10.24c4.36,0,7.54-2.19,8.25-5.67S198.06,53.34,193.7,53.34Zm2.67-15.67h-9.69L184.5,48.29h9.69c4.36,0,7.43-2,8.12-5.31S200.73,37.67,196.37,37.67Z"/>
    <path class="g" d="M241,51.67c-1.25,6.09-2.26,10.72-7.13,14.37a20.13,20.13,0,0,1-12.2,4c-4.48,0-8.08-1.35-10.52-4-3.38-3.59-2.41-8.64-1.27-14.16l.5-2.45c1.25-6.09,2.61-10,6.88-13.17a20.54,20.54,0,0,1,12.14-4c4.48,0,8.13,1.41,10.58,4,2.73,2.92,2.74,7,1.66,12.28Zm-6.68-12a7.83,7.83,0,0,0-6-2.29,11.53,11.53,0,0,0-6.89,2.29c-2.87,2.19-3.68,5.83-4.65,10.56l-.65,3.17c-.78,3.8-1.31,7.29.58,9.26a7.93,7.93,0,0,0,6,2.29,11.14,11.14,0,0,0,6.89-2.29c3-2.29,3.69-5.57,5-11.87C235.75,45.16,236.31,41.83,234.34,39.65Z"/>
    <path class="g" d="M265.08,69.68l6.57-32H259.23l-2.4,11.71c-3.19,15.56-8.53,20.3-17.19,20.3h-2.73l1-5h1.15c4.79,0,8.77-2.6,11.53-16l3.28-16h25.32l-7.6,37.06Z"/>
    <path class="g" d="M281.83,69.68h-7.75l12.59-15.61c-4.78-1.51-7.23-5.2-6.21-10.2,1.41-6.87,7.88-11.24,16.06-11.24h16.42l-7.6,37.06h-6.6l3-14.57h-8.54Zm23.48-32.06h-9.39c-4.72,0-8.11,2.34-8.9,6.19s1.63,6.25,6.35,6.25h9.39Z"/>
</svg>